<svg width="16" height="16" viewBox="0 0 16 16" fill="none" xmlns="http://www.w3.org/2000/svg">
<path d="M12.1978 14.5454L10.0044 10.6763C9.98764 10.6514 9.97622 10.6233 9.97083 10.5938C9.96544 10.5643 9.9662 10.5339 9.97307 10.5047C9.97993 10.4755 9.99275 10.448 10.0107 10.424C10.0287 10.3999 10.0514 10.3798 10.0775 10.365C10.1036 10.3501 10.1325 10.3408 10.1623 10.3377C10.1922 10.3345 10.2224 10.3375 10.251 10.3465C10.2796 10.3555 10.3061 10.3703 10.3287 10.3901C10.3514 10.4098 10.3697 10.4339 10.3826 10.461L12.576 14.3301L12.1978 14.5454Z" fill="#8C3213"/>
<path d="M7.16819 5.45468C7.12978 5.45426 7.09215 5.44385 7.05899 5.42446C7.02583 5.40508 6.9983 5.37739 6.9791 5.34413L4.78564 1.47795L5.16383 1.25977L7.35728 5.12886C7.38461 5.17833 7.39139 5.23657 7.37615 5.291C7.36091 5.34543 7.32487 5.39168 7.27582 5.41977C7.24326 5.43987 7.20635 5.45184 7.16819 5.45468Z" fill="#8C3213"/>
<path d="M10.0537 15.1972C9.73158 15.2027 9.41 15.1676 9.09666 15.0925C5.96938 14.2285 1.86175 6.98194 2.72575 3.85758C3.119 2.75053 3.87312 1.80789 4.86684 1.18121C5.05884 1.06776 5.25375 0.96594 5.44865 0.872849C5.62753 0.791409 5.83044 0.779991 6.01733 0.840849C6.20421 0.901708 6.36149 1.03042 6.45811 1.20158L8.10175 4.11067C8.15631 4.20597 8.19021 4.31168 8.20124 4.42095C8.21227 4.53021 8.20017 4.64057 8.16575 4.74485C8.13067 4.84936 8.0743 4.94547 8.0002 5.02708C7.92609 5.1087 7.83586 5.17406 7.7352 5.21903C7.5752 5.28885 7.41811 5.36158 7.26684 5.44012C6.60647 5.77176 6.22829 6.07139 6.14102 6.33321C5.94029 6.95576 6.17884 8.00885 6.74902 9.01539C7.3192 10.0219 8.0872 10.7608 8.73011 10.8976C8.9192 10.9412 9.31193 10.8976 10.0741 10.3943C10.2196 10.3041 10.365 10.2052 10.5076 10.1034C10.5971 10.0399 10.699 9.99585 10.8067 9.97416C10.9143 9.95246 11.0253 9.95357 11.1325 9.97742C11.2397 10.0013 11.3407 10.0473 11.4289 10.1126C11.5172 10.1779 11.5908 10.261 11.645 10.3565L13.2916 13.2656C13.3899 13.4366 13.4203 13.6384 13.3766 13.8309C13.333 14.0233 13.2185 14.1923 13.0559 14.3041C12.8785 14.4205 12.6894 14.5368 12.4916 14.6445C11.7355 15.0228 10.8991 15.2125 10.0537 15.1972ZM5.77156 1.23358C5.72331 1.23447 5.67576 1.24537 5.63193 1.26558C5.45156 1.34994 5.26829 1.44885 5.08793 1.55648C4.19247 2.12595 3.50952 2.97453 3.14465 3.97103C2.77811 5.30048 3.42102 7.71212 4.78247 10.1121C6.14393 12.5121 7.88356 14.3041 9.21302 14.6736C10.2543 14.8734 11.3324 14.7263 12.2821 14.2547C12.4683 14.1528 12.6457 14.0452 12.8116 13.9347C12.8828 13.8846 12.9328 13.8096 12.9516 13.7246C12.9705 13.6395 12.9568 13.5505 12.9134 13.475L11.2668 10.5659C11.2427 10.5237 11.2101 10.4868 11.1711 10.4578C11.132 10.4287 11.0874 10.4081 11.0399 10.3972C10.9901 10.3857 10.9384 10.385 10.8882 10.395C10.8381 10.405 10.7906 10.4256 10.749 10.4554C10.6007 10.5601 10.4581 10.6619 10.301 10.7463C9.56211 11.2234 9.02975 11.4008 8.62538 11.3107C7.85447 11.1361 7.00793 10.3536 6.36211 9.21612C5.85884 8.34339 5.42829 7.07503 5.7192 6.18485C5.84429 5.79794 6.27193 5.43139 7.06029 5.02121C7.21738 4.93976 7.3832 4.86412 7.54902 4.79139C7.59436 4.7713 7.63507 4.74207 7.66861 4.70553C7.70214 4.66899 7.72778 4.62592 7.74393 4.57903C7.76002 4.53126 7.76574 4.4806 7.76073 4.43044C7.75571 4.38028 7.74007 4.33176 7.71484 4.28812L6.06829 1.37903C6.03419 1.33289 5.98933 1.29578 5.93762 1.27093C5.8859 1.24609 5.8289 1.23426 5.77156 1.23649V1.23358Z" fill="#8C3213"/>
</svg>
